<?xml version="1.0" encoding="UTF-8" standalone="no"?>
<!-- Created with Inkscape (http://www.inkscape.org/) -->

<svg
   xmlns:dc="http://purl.org/dc/elements/1.1/"
   xmlns:cc="http://creativecommons.org/ns#"
   xmlns:rdf="http://www.w3.org/1999/02/22-rdf-syntax-ns#"
   xmlns:svg="http://www.w3.org/2000/svg"
   xmlns="http://www.w3.org/2000/svg"
   xmlns:sodipodi="http://sodipodi.sourceforge.net/DTD/sodipodi-0.dtd"
   xmlns:inkscape="http://www.inkscape.org/namespaces/inkscape"
   width="512"
   height="512"
   viewBox="0 0 512 512"
   id="svg5780"
   version="1.1"
   inkscape:version="0.91pre3 r13670"
   sodipodi:docname="favicon.svg">
  <defs
     id="defs5782" />
  <sodipodi:namedview
     id="base"
     pagecolor="#ffffff"
     bordercolor="#666666"
     borderopacity="1.0"
     inkscape:pageopacity="0.0"
     inkscape:pageshadow="2"
     inkscape:zoom="0.49497475"
     inkscape:cx="579.14219"
     inkscape:cy="113.78372"
     inkscape:document-units="px"
     inkscape:current-layer="layer1"
     showgrid="false"
     fit-margin-top="0"
     fit-margin-left="0"
     fit-margin-right="0"
     fit-margin-bottom="0"
     units="px"
     inkscape:window-width="1600"
     inkscape:window-height="878"
     inkscape:window-x="-8"
     inkscape:window-y="-8"
     inkscape:window-maximized="1" />
  <metadata
     id="metadata5785">
    <rdf:RDF>
      <cc:Work
         rdf:about="">
        <dc:format>image/svg+xml</dc:format>
        <dc:type
           rdf:resource="http://purl.org/dc/dcmitype/StillImage" />
        <dc:title></dc:title>
      </cc:Work>
    </rdf:RDF>
  </metadata>
  <g
     inkscape:label="Calque 1"
     inkscape:groupmode="layer"
     id="layer1"
     transform="translate(-86.962873,376.79736)">
    <g
       inkscape:export-ydpi="218.30644"
       inkscape:export-xdpi="218.30644"
       inkscape:export-filename="C:\Users\Elie\Documents\programmation\Evernest\doc\mockup\images\mountain.png"
       transform="matrix(3.6477677,0,0,3.6477677,-3839.6698,-742.20259)"
       id="g5748">
      <path
         sodipodi:nodetypes="scccccscssccs"
         inkscape:connector-curvature="0"
         id="path5750"
         d="m 1156.4656,139.84512 -2.3977,-3.73043 -4.5822,-3.93101 -5.0509,-3.84171 -0.016,-2.89668 c -0.01,-1.59317 0.084,-2.89505 0.2068,-2.89307 0.1225,0.002 2.888,1.43918 6.1455,3.19376 l 5.9227,3.19017 4.8455,7.10702 c 2.6649,3.90886 4.8779,8.07897 4.8358,8.12106 -0.042,0.0421 -1.1122,-0.39352 -1.887,-0.55874 -1.3146,-0.28036 -2.5257,-0.56057 -5.3379,0.13444 -0.5029,0.12429 -1.0006,-0.56034 -2.6845,-3.89481 z"
         style="fill:#e5eff4;fill-opacity:1;stroke:none" />
      <path
         sodipodi:nodetypes="ccccccsssscccsscscsccscscssscscccccccccccccscscscscscscscscscscssscc"
         inkscape:connector-curvature="0"
         id="path5752"
         d="m 1113.293,197.74679 -0.9213,-2.18467 -2.4459,-1.40973 -2.446,-1.40972 -3.9647,1.86447 -3.9647,1.86446 -3.1727,-1.25143 c -3.0031,-1.18457 -3.7661,-1.64897 -2.7093,-1.64897 0.2564,0 0.5985,-0.20869 0.7601,-0.46377 0.1615,-0.25507 1.1362,-1.79506 2.1928,-3.4046 l 1.899,-2.94084 0.7647,-4.12212 0.7647,-4.12213 5.2596,-6.58508 c 5.0145,-6.27805 5.4171,-6.87015 8.6368,-12.69944 1.8574,-3.3629 3.525,-6.31173 3.7058,-6.55297 0.2323,-0.31 1.3775,-0.60365 3.9063,-1.00164 l 3.5777,-0.56306 1.9068,-1.45617 c 1.0487,-0.80089 0.2539,-1.9585 0.7802,-2.41812 l 0.9569,-0.83569 -0.3872,-2.3851 c -0.213,-1.31179 -0.3091,-2.50941 -0.2136,-2.66134 0.095,-0.15194 0.693,-1.00104 1.3278,-1.88689 l 1.1542,-1.61066 2.3566,-0.33777 c 1.2961,-0.18578 2.4751,-0.48065 2.6201,-0.65528 0.1449,-0.17462 0.8528,-2.03563 1.5731,-4.13558 0.7203,-2.09994 1.4512,-4.21353 1.6242,-4.69686 0.2132,-0.59554 1.1798,-1.604 2.9989,-3.12872 l 2.6844,-2.24992 0.1325,2.78872 0.1325,2.78873 4.6239,3.5705 4.6239,3.5705 2.2663,3.74474 2.2664,3.74474 2.5176,1.13456 2.5176,1.13455 -0.1046,7.91096 -0.1046,7.91096 4.1164,3.98753 4.1165,3.98752 -0.5667,3.88685 c -0.3116,2.13777 -0.6433,3.96348 -0.737,4.05715 -0.094,0.0937 -2.1806,-1.09407 -4.6377,-2.63942 l -4.4673,-2.80974 -2.7826,-4.09069 c -1.5305,-2.24988 -2.8423,-4.08922 -2.9151,-4.08744 -0.073,0.002 -1.0779,1.66348 -2.2334,3.69267 l -2.1008,3.68943 -1.2911,0.27689 c -0.7101,0.15229 -1.4939,0.27075 -1.7418,0.26324 -0.2479,-0.007 -1.4644,-1.25755 -2.7033,-2.77787 -1.239,-1.52032 -1.9565,-1.97394 -2.1129,-1.97654 -0.1563,-0.003 0.3701,0.0606 -0.8582,0.95468 -1.2283,0.89406 -2.2554,1.64167 -2.2825,1.66136 -0.027,0.0197 -0.2284,1.14916 -0.4475,2.50997 -0.219,1.3608 -0.4717,2.54762 -0.5615,2.63739 -0.09,0.0897 -1.8276,0.55012 -3.8619,1.023 l -3.6988,0.85978 -5.2309,3.09369 c -2.877,1.70153 -5.2537,3.10977 -5.2815,3.12941 -0.028,0.0196 -0.8973,3.05486 -1.9322,6.74491 -1.8251,6.50758 -1.9258,6.77219 -3.3504,8.80523 -0.8078,1.15283 -1.5012,2.09605 -1.5409,2.09605 -0.04,0 -0.4868,-0.98311 -0.9936,-2.18467 z"
         style="fill:#c5dbe5;fill-opacity:1;stroke:none" />
      <path
         sodipodi:nodetypes="csscsscccccccscccccscscccccccc"
         inkscape:connector-curvature="0"
         id="path5754"
         d="m 1186.4561,175.76861 c -1.4862,-0.0987 -1.7503,-0.23243 -3.2364,-1.63907 -0.8901,-0.84241 -2.2871,-2.16201 -3.1045,-2.93244 l -1.4862,-1.40078 -1.7503,2.19691 c -1.4141,1.77498 -2.0489,2.32015 -3.3054,2.83853 -0.8554,0.35289 -1.6034,0.5912 -1.6622,0.52959 -0.059,-0.0616 0.017,-0.84022 0.1679,-1.73025 l -1.0423,-1.72984 -3.2929,-4.33912 -4.6099,-4.45072 0.1343,-8.90929 0.1343,-8.90928 -2.2978,-1.05695 c -1.2638,-0.58134 -2.2996,-1.13934 -2.3017,-1.24003 -0.011,-0.48988 2.6048,-0.53648 4.6735,-0.0833 l 2.2368,0.49005 3.2497,3.27172 3.2496,3.27172 2.3189,6.1787 c 1.2754,3.39828 2.3286,6.2006 2.3406,6.22738 0.012,0.0268 1.1125,-0.15243 2.4457,-0.39822 l 2.4239,-0.44689 4.4903,3.52181 4.4904,3.52183 0.082,3.71709 0.082,3.7171 -1.4064,-0.0544 c -0.7735,-0.0299 -2.1345,-0.10275 -3.0246,-0.16185 z"
         style="fill:#d2e4ec;fill-opacity:1;stroke:none" />
      <path
         sodipodi:nodetypes="scccscsssscccccccsscscssscscscscscs"
         inkscape:connector-curvature="0"
         id="path5756"
         d="m 1178.5787,206.43531 -1.5939,-6.321 -3.1519,-4.47737 -3.1519,-4.47735 1.3446,-4.03396 c 0.7395,-2.21866 1.2718,-4.09841 1.1829,-4.1772 -0.089,-0.0788 -1.0267,-0.79176 -2.0839,-1.58437 -1.0571,-0.79263 -1.9221,-1.52824 -1.9221,-1.6347 0,-0.10646 0.2209,-1.05272 0.4909,-2.10279 0.2699,-1.05008 0.6321,-2.83624 0.8048,-3.96926 l 0.314,-2.06002 1.9611,-0.76483 1.9612,-0.76482 1.3063,-1.60696 1.3063,-1.60697 2.4372,2.30616 2.4371,2.30615 2.1636,0.12146 c 1.1899,0.0668 2.5972,0.1795 3.1274,0.25042 l 0.9638,0.12895 3.9747,4.17242 c 3.5539,3.73064 4.0375,4.17213 4.5681,4.16964 0.3264,-0.001 1.8101,-0.0858 3.2971,-0.18736 1.487,-0.10155 2.7347,-0.15348 2.7728,-0.11545 0.038,0.038 -0.094,1.66238 -0.2939,3.60968 -0.1997,1.9473 -0.3227,3.58274 -0.2734,3.63432 0.049,0.0516 1.623,0.43813 3.4972,0.85904 l 3.4077,0.76529 3.505,6.26129 c 1.9278,3.44372 3.6571,6.37255 3.8431,6.50852 0.2808,0.20531 -1.1079,0.22727 -8.1931,0.12957 l -8.5312,-0.11764 -9.7513,5.47855 c -5.3632,3.0132 -8.4071,6.69377 -8.5102,6.7331 -0.1052,0.0401 -2.3164,-3.88869 -3.2101,-7.43251 z"
         style="fill:#e5eff4;fill-opacity:1;stroke:none" />
      <path
         sodipodi:nodetypes="scssscccccccssscscscscsccscscscscs"
         inkscape:connector-curvature="0"
         id="path5758"
         d="m 1168.0889,209.07702 -13.7369,-5.02391 -1.904,0.45547 c -7.8931,1.88818 -16.624,2.17467 -16.953,2.26548 -0.2191,0.0605 -0.4126,0.94875 1.1458,-0.62373 l 2.8334,-2.85904 -0.4165,-3.48682 -0.4166,-3.48681 2.6375,-5.87777 2.6376,-5.87777 0.3537,-6.87399 0.3537,-6.874 -0.5905,-2.26063 c -0.3248,-1.24335 -0.5552,-2.29596 -0.512,-2.33913 0.043,-0.0432 0.834,0.85706 1.7575,2.00051 1.0563,1.30792 1.7898,2.05043 1.9779,2.00196 0.1643,-0.0424 1.2851,-0.26994 2.4905,-0.50572 l 2.1917,-0.42871 1.8671,-3.26576 c 1.0269,-1.79617 1.9322,-3.22555 2.0117,-3.17639 0.079,0.0491 1.2543,1.69348 2.6105,3.65406 l 2.4659,3.5647 5.0364,3.13276 c 3.3477,2.08233 5.0353,3.24445 5.0331,3.46588 0,0.22969 -0.689,3.12222 -0.7902,3.32877 0,0.003 1.0053,0.75584 2.2381,1.67114 l 2.2415,1.66417 -1.3477,4.10545 c -0.7412,2.25799 -1.3064,4.21301 -1.256,4.34451 0.05,0.13148 1.5833,2.35067 3.4063,4.93152 l 3.3145,4.69247 1.5881,6.1967 c 0.8734,3.4082 1.561,6.26688 1.5279,6.35263 -0.033,0.0858 -6.2418,-2.10484 -13.797,-4.868 z"
         style="fill:#abc2cd;fill-opacity:1;stroke:none" />
      <path
         inkscape:connector-curvature="0"
         id="path5760"
         d="m 1131.5908,206.02887 c -2.3123,-2.5081 -2.3903,-2.57138 -3.0642,-2.48764 -1.5286,0.18994 -18.5768,1.93187 -18.6152,1.90205 -0.023,-0.0177 1.4732,-2.22461 3.3243,-4.90442 1.8511,-2.67982 3.4377,-5.0119 3.5259,-5.18238 0.088,-0.17049 0.9631,-3.20866 1.9443,-6.75146 0.9813,-3.54281 1.8799,-6.54728 1.9971,-6.67658 0.1172,-0.1293 2.4622,-1.56416 5.2111,-3.18856 l 4.9981,-2.95346 3.9415,-0.9102 c 2.1678,-0.50062 4.0777,-0.94877 4.2443,-0.99589 0.2289,-0.0647 0.3857,-0.66054 0.6419,-2.43885 0.1865,-1.29425 0.3863,-2.55685 0.4441,-2.80579 0.1417,-0.61084 3.139,-2.85175 3.3333,-2.49216 0.075,0.13904 0.4583,1.50745 0.8514,3.04091 l 0.7148,2.78811 -0.3155,6.29175 -0.3156,6.29174 -2.5909,5.88104 -2.5909,5.88104 0.406,3.1887 0.4061,3.18872 -2.9489,2.95344 c -1.6218,1.62441 -2.9986,2.95345 -3.0596,2.95345 -0.061,0 -1.1784,-1.1581 -2.4834,-2.57356 z"
         style="fill:#c3d4dc;fill-opacity:1;stroke:none" />
      <path
         inkscape:connector-curvature="0"
         id="path5762"
         d="m 1076.4812,205.60499 c 0.076,-0.0831 1.7007,-1.0479 3.6113,-2.144 l 3.4739,-1.99292 3.0207,-4.26838 3.0208,-4.26838 1.5822,-0.40237 c 0.8702,-0.2213 1.7004,-0.4021 1.8449,-0.40178 0.1446,3.2e-4 2.0841,0.7238 4.3101,1.60772 2.2261,0.88393 4.1292,1.60715 4.2293,1.60715 0.1,0 1.8021,-0.76829 3.7823,-1.7073 1.9802,-0.93901 3.6604,-1.68231 3.7338,-1.65178 0.073,0.0305 0.9091,0.49747 1.857,1.03765 l 1.7235,0.98214 0.9891,2.23214 c 0.544,1.22768 0.9886,2.32742 0.9881,2.44386 0,0.3449 -3.0435,4.61145 -3.2728,4.5904 -0.1157,-0.0106 -2.959,-0.8107 -6.3184,-1.77796 -5.7956,-1.66867 -6.152,-1.74912 -6.9643,-1.57244 -0.8552,0.18599 -20.9742,5.565 -21.4812,5.74319 -0.1473,0.0518 -0.206,0.0262 -0.1303,-0.0569 z"
         style="fill:#abc2cd;fill-opacity:1;stroke:none" />
    </g>
  </g>
</svg>
