<?xml version="1.0" encoding="UTF-8" standalone="no"?>
<svg
   xmlns:dc="http://purl.org/dc/elements/1.1/"
   xmlns:cc="http://creativecommons.org/ns#"
   xmlns:rdf="http://www.w3.org/1999/02/22-rdf-syntax-ns#"
   xmlns:svg="http://www.w3.org/2000/svg"
   xmlns="http://www.w3.org/2000/svg"
   viewBox="0 0 150 50.000001"
   version="1.1"
   id="svg5633"
   height="50"
   width="150">
  <defs
     id="defs5635" />
  <metadata
     id="metadata5638">
    <rdf:RDF>
      <cc:Work
         rdf:about="">
        <dc:format>image/svg+xml</dc:format>
        <dc:type
           rdf:resource="http://purl.org/dc/dcmitype/StillImage" />
        <dc:title></dc:title>
      </cc:Work>
    </rdf:RDF>
  </metadata>
  <g
     transform="translate(-499.0243,-894.9571)"
     id="layer1">
    <path
       id="path5456"
       d="m 534.49819,902.69692 -1.02015,-1.58718 -1.94958,-1.67252 -2.14902,-1.63455 -0.007,-1.23246 c -0.004,-0.67784 0.0358,-1.23175 0.088,-1.23091 0.0521,8.5e-4 1.22879,0.61233 2.61477,1.35885 l 2.51995,1.35733 2.06158,3.02384 c 1.13387,1.66309 2.07543,3.43735 2.05751,3.45526 -0.0179,0.0179 -0.47322,-0.16741 -0.80287,-0.23771 -0.55929,-0.1193 -1.07461,-0.23852 -2.27111,0.0572 -0.21398,0.0529 -0.42574,-0.23838 -1.14218,-1.65713 z"
       style="opacity:1;fill:#e5eff4;fill-opacity:1;stroke:none;stroke-width:2;stroke-linecap:butt;stroke-linejoin:bevel;stroke-miterlimit:4;stroke-dasharray:none;stroke-dashoffset:0;stroke-opacity:1" />
    <path
       style="opacity:1;fill:#c5dbe5;fill-opacity:1;stroke:none;stroke-width:2;stroke-linecap:butt;stroke-linejoin:bevel;stroke-miterlimit:4;stroke-dasharray:none;stroke-dashoffset:0;stroke-opacity:1"
       d="m 529.41475,895.38446 -1.14179,0.95648 c -0.77398,0.64872 -1.18572,1.07787 -1.27642,1.33126 -0.0737,0.20564 -0.38409,1.10508 -0.69055,1.99855 -0.30648,0.89347 -0.60814,1.68577 -0.6698,1.76006 -0.0617,0.0743 -0.56291,0.19934 -1.11437,0.27838 l -1.003,0.14378 -0.49114,0.68556 c -0.27008,0.37692 -0.52361,0.73811 -0.56424,0.80273 -0.0407,0.0647 -3e-5,0.57371 0.0906,1.13184 l 0.16454,1.01547 -0.4072,0.35484 c -0.22392,0.19555 0.11464,0.68884 -0.33156,1.02961 l -0.81189,0.6191 -1.52156,0.23932 c -1.07592,0.16934 -1.56315,0.2944 -1.66199,0.42629 -0.077,0.10267 -0.78697,1.35721 -1.57724,2.78803 -1.36987,2.4802 -1.54118,2.732 -3.67468,5.40315 l -2.23788,2.80211 -0.32492,1.75427 -0.32575,1.7534 -0.80774,1.25148 c -0.44955,0.6848 -0.86445,1.3399 -0.93321,1.44844 -0.0686,0.10853 -0.21415,0.19694 -0.32326,0.19694 -0.44964,0 -0.12516,0.19819 1.1526,0.70221 l 1.35037,0.53184 1.68694,-0.79278 1.68692,-0.79363 0.69306,0.39972 c 7.16537,-12.14818 16.50548,-14.14887 23.90285,-13.14061 l -0.80856,-0.78277 0.0449,-3.36638 0.0449,-3.36556 -1.07116,-0.48278 -1.07115,-0.48283 -0.96479,-1.59305 -0.96396,-1.59382 -1.96781,-1.51908 -1.96698,-1.51907 -0.0565,-1.18666 -0.0566,-1.18584 z"
       id="path5458" />
    <path
       style="opacity:1;fill:#d2e4ec;fill-opacity:1;stroke:none;stroke-width:2;stroke-linecap:butt;stroke-linejoin:bevel;stroke-miterlimit:4;stroke-dasharray:none;stroke-dashoffset:0;stroke-opacity:1"
       d="m 536.15498,903.86897 c -0.38765,0.007 -0.66454,0.0644 -0.66231,0.16866 8.5e-4,0.0428 0.44121,0.28034 0.97892,0.52771 l 0.97808,0.44956 -0.0574,3.79019 -0.054,3.54421 c 5.24676,0.52121 9.62473,2.63108 11.76611,3.94643 l -0.0307,-1.3853 -1.91046,-1.49825 -1.91047,-1.4983 -1.03126,0.18945 c -0.56723,0.10459 -1.03614,0.18092 -1.04126,0.16952 -0.005,-0.0115 -0.45289,-1.20336 -0.99553,-2.6492 l -0.98639,-2.62929 -1.38278,-1.39192 -1.38278,-1.39194 -0.9515,-0.20857 c -0.44008,-0.0964 -0.93862,-0.1399 -1.32627,-0.13296 z"
       id="path5460" />
    <path
       style="opacity:1;fill:#abc2cd;fill-opacity:1;stroke:none;stroke-width:0.35714287;stroke-linecap:butt;stroke-linejoin:bevel;stroke-miterlimit:4;stroke-dasharray:none;stroke-dashoffset:0;stroke-opacity:1"
       d="m 514.34125,924.87995 c -0.0312,-0.0127 -0.74635,0.3035 -1.58887,0.70301 -0.84251,0.39951 -1.56624,0.72633 -1.60881,0.72633 -0.0426,0 -0.852,-0.30783 -1.79912,-0.68394 -0.9471,-0.37609 -1.7725,-0.68378 -1.83401,-0.68392 -0.0615,-1.2e-4 -0.41506,0.0771 -0.7853,0.17121 l -0.67309,0.17117 -1.28473,1.81574 -1.28556,1.81655 -1.47835,0.84763 c -0.81291,0.46636 -1.50435,0.87707 -1.53652,0.91243 -0.0322,0.0353 -0.007,0.0462 0.0556,0.0242 0.21572,-0.0758 8.77548,-2.36481 9.13933,-2.44395 0.34292,-0.0746 0.50716,-0.0382 2.91764,0.65565 0.67346,-1.3852 1.37042,-2.66991 2.08996,-3.8492 -0.10495,-0.0583 -0.31528,-0.17742 -0.32825,-0.18282 z"
       id="path5462" />
    <path
       d="m 535.95102,926.10642 q 0.12823,-3.36573 -1.53863,-6.02629 -1.85918,-2.94907 -5.00056,-3.46194 -0.57697,-0.0962 -1.12191,-0.0962 -2.85288,0 -5.0967,1.98736 -2.9811,2.59646 -3.30165,6.57125 -0.0321,0.19235 -0.0321,0.41671 0,0.28851 0,0.70522 l 0,0.67314 q 0.54493,4.51973 3.26958,6.92386 2.37206,2.08354 6.05836,2.0515 0.80137,-0.032 1.66686,-0.12823 2.1156,-0.25644 4.16711,-0.86546 0,0.0962 0,-0.38467 0,-0.48083 0,-1.18604 -2.08355,0.57697 -2.66055,0.70521 -1.57068,0.41672 -3.52602,0.32056 -2.75672,0 -4.80822,-1.79507 -1.82712,-1.60276 -2.43616,-5.38519 -0.0962,-0.48083 -0.0962,-0.8655 l 0,-0.16027 14.45671,0 z m -11.92439,-6.15453 q 2.05151,-1.79507 4.35947,-1.79507 2.98109,0 4.87233,3.26957 0.80136,1.3143 0.99368,3.07727 l -12.69369,0 q 0.4167,-2.75671 2.46821,-4.55177 z"
       style="font-style:normal;font-variant:normal;font-weight:normal;font-stretch:normal;font-size:medium;line-height:125%;font-family:Aaargh;-inkscape-font-specification:Aaargh;letter-spacing:0px;word-spacing:0px;fill:#eef5f8;fill-opacity:1;stroke:none;stroke-width:1px;stroke-linecap:butt;stroke-linejoin:miter;stroke-opacity:1"
       id="path5520" />
    <path
       d="m 545.14423,935.37025 1.66685,0 6.50711,-18.49563 -1.6989,0 -5.64164,16.0915 -5.83396,-16.0915 -1.69891,0 6.69945,18.49563 z"
       style="font-style:normal;font-variant:normal;font-weight:normal;font-stretch:normal;font-size:medium;line-height:125%;font-family:Aaargh;-inkscape-font-specification:Aaargh;letter-spacing:0px;word-spacing:0px;fill:#eef5f8;fill-opacity:1;stroke:none;stroke-width:1px;stroke-linecap:butt;stroke-linejoin:miter;stroke-opacity:1"
       id="path5522" />
    <path
       d="m 571.57441,926.10642 q 0.12821,-3.36573 -1.53864,-6.02629 -1.85918,-2.94907 -5.00054,-3.46194 -0.57699,-0.0962 -1.12192,-0.0962 -2.85288,0 -5.09671,1.98736 -2.98109,2.59646 -3.30165,6.57125 -0.0321,0.19235 -0.0321,0.41671 0,0.28851 0,0.70522 l 0,0.67314 q 0.54492,4.51973 3.26959,6.92386 2.37205,2.08354 6.05835,2.0515 0.80137,-0.032 1.66685,-0.12823 2.11563,-0.25644 4.16713,-0.86546 0,0.0962 0,-0.38467 0,-0.48083 0,-1.18604 -2.08357,0.57697 -2.66056,0.70521 -1.57069,0.41672 -3.52602,0.32056 -2.75671,0 -4.80822,-1.79507 -1.82713,-1.60276 -2.43616,-5.38519 -0.0962,-0.48083 -0.0962,-0.8655 l 0,-0.16027 14.45671,0 z m -11.92439,-6.15453 q 2.05151,-1.79507 4.35946,-1.79507 2.98109,0 4.87232,3.26957 0.80137,1.3143 0.9937,3.07727 l -12.69369,0 q 0.41671,-2.75671 2.46821,-4.55177 z"
       style="font-style:normal;font-variant:normal;font-weight:normal;font-stretch:normal;font-size:medium;line-height:125%;font-family:Aaargh;-inkscape-font-specification:Aaargh;letter-spacing:0px;word-spacing:0px;fill:#eef5f8;fill-opacity:1;stroke:none;stroke-width:1px;stroke-linecap:butt;stroke-linejoin:miter;stroke-opacity:1"
       id="path5524" />
    <path
       d="m 579.38926,918.50941 q -1.15398,1.02577 -1.98739,2.43616 l 0,-4.10299 -1.60275,0 0,18.52767 1.60275,0 0,-8.71889 q 0,-0.28851 0.19233,-1.44248 0.57698,-3.55809 2.69259,-5.41726 1.05781,-0.89754 2.34,-1.34629 l 0,-1.63479 q -1.85918,0.51286 -3.23753,1.69887 z"
       style="font-style:normal;font-variant:normal;font-weight:normal;font-stretch:normal;font-size:medium;line-height:125%;font-family:Aaargh;-inkscape-font-specification:Aaargh;letter-spacing:0px;word-spacing:0px;fill:#eef5f8;fill-opacity:1;stroke:none;stroke-width:1px;stroke-linecap:butt;stroke-linejoin:miter;stroke-opacity:1"
       id="path5526" />
    <path
       d="m 601.98589,919.79162 q -0.9296,-1.57068 -2.11563,-2.30794 -1.18602,-0.76933 -3.33369,-1.12192 -0.54493,-0.064 -1.12193,-0.064 -2.01944,0 -3.84656,1.0578 -1.79508,1.0578 -2.9811,2.78879 l 0,-3.30166 -1.60273,0 0,18.52767 1.60273,0 0,-10.12933 q 0,-3.26957 2.53233,-5.51343 2.08356,-1.8271 4.42356,-1.8271 0.3526,0 0.7052,0.0642 1.73096,0.28847 2.62849,0.86545 0.89754,0.57698 1.6348,1.89126 0.96165,1.60271 0.96165,4.64794 l 0,0 0,10.00108 1.66684,0 0,-10.00108 q 0,-3.59013 -1.15396,-5.57755 z"
       style="font-style:normal;font-variant:normal;font-weight:normal;font-stretch:normal;font-size:medium;line-height:125%;font-family:Aaargh;-inkscape-font-specification:Aaargh;letter-spacing:0px;word-spacing:0px;fill:#eef5f8;fill-opacity:1;stroke:none;stroke-width:1px;stroke-linecap:butt;stroke-linejoin:miter;stroke-opacity:1"
       id="path5528" />
    <path
       d="m 622.91215,926.10642 q 0.12822,-3.36573 -1.53863,-6.02629 -1.85918,-2.94907 -5.00054,-3.46194 -0.577,-0.0962 -1.12192,-0.0962 -2.85287,0 -5.09672,1.98736 -2.98109,2.59646 -3.30165,6.57125 -0.0321,0.19235 -0.0321,0.41671 0,0.28851 0,0.70522 l 0,0.67314 q 0.54493,4.51973 3.2696,6.92386 2.37205,2.08354 6.05834,2.0515 0.80137,-0.032 1.66686,-0.12823 2.1156,-0.25644 4.16711,-0.86546 0,0.0962 0,-0.38467 0,-0.48083 0,-1.18604 -2.08356,0.57697 -2.66054,0.70521 -1.57069,0.41672 -3.52603,0.32056 -2.7567,0 -4.80821,-1.79507 -1.82713,-1.60276 -2.43617,-5.38519 -0.0962,-0.48083 -0.0962,-0.8655 l 0,-0.16027 14.4567,0 z m -11.92438,-6.15453 q 2.05151,-1.79507 4.35945,-1.79507 2.98109,0 4.87233,3.26957 0.80137,1.3143 0.9937,3.07727 l -12.6937,0 q 0.41672,-2.75671 2.46822,-4.55177 z"
       style="font-style:normal;font-variant:normal;font-weight:normal;font-stretch:normal;font-size:medium;line-height:125%;font-family:Aaargh;-inkscape-font-specification:Aaargh;letter-spacing:0px;word-spacing:0px;fill:#eef5f8;fill-opacity:1;stroke:none;stroke-width:1px;stroke-linecap:butt;stroke-linejoin:miter;stroke-opacity:1"
       id="path5530" />
    <path
       d="m 630.53468,924.85629 q -3.17343,-1.92329 -3.17343,-3.52604 0,-0.28848 0.0962,-0.70522 0.51287,-2.56436 3.20548,-2.56436 0.48082,0 1.0578,0.0962 1.18603,0.19232 1.79507,0.51287 0.76932,0.35262 1.76302,1.34632 l 0.16027,-1.5066 q -1.85917,-1.92326 -5.09672,-1.92326 -3.84656,0 -4.55177,3.59013 -0.0962,0.51287 -0.0962,0.96165 0,2.08354 2.14767,3.84656 2.01944,1.34632 4.00685,2.6926 2.14766,1.60275 2.14766,3.26958 0,0.32055 -0.064,0.6411 -0.57698,3.07726 -3.46192,3.07726 -2.53232,0 -4.64793,-1.89122 l -0.064,1.76303 q 1.25013,0.9616 3.26958,1.34627 0.70521,0.16028 1.41041,0.16028 1.95534,0 3.30164,-0.99368 1.47452,-1.02578 1.85917,-2.94904 0.12823,-0.70522 0.12823,-1.2822 0,-1.50659 -1.12191,-2.82083 -1.12192,-1.31423 -4.07096,-3.14135 z"
       style="font-style:normal;font-variant:normal;font-weight:normal;font-stretch:normal;font-size:medium;line-height:125%;font-family:Aaargh;-inkscape-font-specification:Aaargh;letter-spacing:0px;word-spacing:0px;fill:#eef5f8;fill-opacity:1;stroke:none;stroke-width:1px;stroke-linecap:butt;stroke-linejoin:miter;stroke-opacity:1"
       id="path5532" />
    <path
       d="m 643.72924,933.67135 q -0.89754,-0.80138 -1.12193,-2.917 -0.064,-0.60901 -0.0962,-4.32738 -0.0641,-4.00684 0,-7.98164 l 4.13506,0 0,-1.60275 -4.13506,0 0,-3.10931 -1.60273,0 0,3.10931 -2.69261,0 0,1.60275 2.69261,0 q -0.064,4.03888 0,8.07779 0.064,4.10304 0.16026,5.00057 0.28849,2.24381 1.44247,3.2375 0.70521,0.60906 2.21178,0.76935 0.54493,0.064 2.43616,0.064 l 0,-1.37835 q -2.69261,0.064 -3.42985,-0.54494 z"
       style="font-style:normal;font-variant:normal;font-weight:normal;font-stretch:normal;font-size:medium;line-height:125%;font-family:Aaargh;-inkscape-font-specification:Aaargh;letter-spacing:0px;word-spacing:0px;fill:#eef5f8;fill-opacity:1;stroke:none;stroke-width:1px;stroke-linecap:butt;stroke-linejoin:miter;stroke-opacity:1"
       id="path5534" />
    <path
       d="m 519.99113,942.95484 0.28934,0 0,-5.32984 -0.28934,0 0,5.32984 z"
       style="font-style:normal;font-variant:normal;font-weight:normal;font-stretch:normal;font-size:medium;line-height:125%;font-family:Aaargh;-inkscape-font-specification:Aaargh;letter-spacing:0px;word-spacing:0px;fill:#7ca0b1;fill-opacity:1;stroke:none;stroke-width:1px;stroke-linecap:butt;stroke-linejoin:miter;stroke-opacity:1"
       id="path5473" />
    <path
       d="m 524.05802,941.27081 q 0.0232,-0.60766 -0.27777,-1.08797 -0.33565,-0.5324 -0.90278,-0.62498 -0.10416,-0.0174 -0.20254,-0.0174 -0.51504,0 -0.92014,0.3588 -0.53818,0.46874 -0.59605,1.1863 -0.006,0.0349 -0.006,0.0752 0,0.0521 0,0.12731 l 0,0.12152 q 0.0984,0.81596 0.59028,1.24998 0.42823,0.37617 1.09374,0.37038 0.14467,-0.006 0.30092,-0.023 0.38193,-0.0463 0.75231,-0.15627 0,0.0174 0,-0.0694 0,-0.0868 0,-0.21411 -0.37616,0.10416 -0.48033,0.1273 -0.28356,0.0752 -0.63656,0.0578 -0.49768,0 -0.86805,-0.32409 -0.32986,-0.28932 -0.43981,-0.9722 -0.0174,-0.0868 -0.0174,-0.15623 l 0,-0.029 2.60993,0 z m -2.15276,-1.11111 q 0.37037,-0.32408 0.78703,-0.32408 0.53819,0 0.87962,0.5903 0.14467,0.23723 0.1794,0.55553 l -2.29165,0 q 0.0752,-0.49767 0.4456,-0.82175 z"
       style="font-style:normal;font-variant:normal;font-weight:normal;font-stretch:normal;font-size:medium;line-height:125%;font-family:Aaargh;-inkscape-font-specification:Aaargh;letter-spacing:0px;word-spacing:0px;fill:#7ca0b1;fill-opacity:1;stroke:none;stroke-width:1px;stroke-linecap:butt;stroke-linejoin:miter;stroke-opacity:1"
       id="path5475" />
    <path
       d="m 525.55567,942.63654 q -0.16203,-0.14466 -0.20255,-0.52661 -0.0116,-0.10999 -0.0174,-0.78125 -0.0116,-0.7234 0,-1.44095 l 0.74653,0 0,-0.28936 -0.74653,0 0,-0.56132 -0.28934,0 0,0.56132 -0.48611,0 0,0.28936 0.48611,0 q -0.0116,0.72913 0,1.45831 0.0116,0.74074 0.029,0.90276 0.0521,0.40509 0.2604,0.58448 0.12732,0.10998 0.39932,0.13891 0.0984,0.0115 0.43981,0.0115 l 0,-0.24886 q -0.48611,0.0115 -0.61922,-0.0984 z"
       style="font-style:normal;font-variant:normal;font-weight:normal;font-stretch:normal;font-size:medium;line-height:125%;font-family:Aaargh;-inkscape-font-specification:Aaargh;letter-spacing:0px;word-spacing:0px;fill:#7ca0b1;fill-opacity:1;stroke:none;stroke-width:1px;stroke-linecap:butt;stroke-linejoin:miter;stroke-opacity:1"
       id="path5477" />
    <path
       d="m 531.59465,939.60416 -1.02429,2.90507 -1.05323,-2.90507 -0.30671,0 1.20948,3.3391 -0.45718,1.30786 q -0.0406,0.11573 -0.16781,0.24302 -0.16783,0.16785 -0.4456,0.20257 l 0.0116,0.26039 q 0.43402,-0.0578 0.6655,-0.28353 0.1273,-0.12156 0.19676,-0.30672 l 0,0 0.006,0 q 0.006,-0.029 0.0231,-0.0752 l 1.64351,-4.68746 -0.30092,0 z"
       style="font-style:normal;font-variant:normal;font-weight:normal;font-stretch:normal;font-size:medium;line-height:125%;font-family:Aaargh;-inkscape-font-specification:Aaargh;letter-spacing:0px;word-spacing:0px;fill:#7ca0b1;fill-opacity:1;stroke:none;stroke-width:1px;stroke-linecap:butt;stroke-linejoin:miter;stroke-opacity:1"
       id="path5479" />
    <path
       d="m 533.88304,939.52893 q -0.60763,0 -1.07637,0.51504 -0.46296,0.51503 -0.46296,1.23263 0,0.81018 0.42244,1.27892 0.42245,0.46875 1.11689,0.46875 0.72338,0 1.12846,-0.46296 0.41088,-0.46295 0.41088,-1.28471 0,-0.7176 -0.46296,-1.23263 -0.46296,-0.51504 -1.07638,-0.51504 z m 0.006,3.20598 q -0.56134,0 -0.90278,-0.38774 -0.34143,-0.39351 -0.34143,-1.07057 0,-0.59609 0.37616,-1.02432 0.37615,-0.43402 0.86805,-0.43402 0.49189,0 0.86804,0.43402 0.37615,0.42823 0.37615,1.02432 0,0.66548 -0.34722,1.06478 -0.34721,0.39353 -0.89697,0.39353 z"
       style="font-style:normal;font-variant:normal;font-weight:normal;font-stretch:normal;font-size:medium;line-height:125%;font-family:Aaargh;-inkscape-font-specification:Aaargh;letter-spacing:0px;word-spacing:0px;fill:#7ca0b1;fill-opacity:1;stroke:none;stroke-width:1px;stroke-linecap:butt;stroke-linejoin:miter;stroke-opacity:1"
       id="path5481" />
    <path
       d="m 538.42527,939.60416 0,2.40735 q -0.0925,0.25465 -0.28934,0.42824 -0.37037,0.32408 -0.76388,0.32408 -0.59606,0 -0.81018,-0.45716 -0.15625,-0.33565 -0.16782,-0.88541 l 0,-1.8171 -0.30093,0 0,1.81132 q 0,0.69445 0.20255,1.08218 0.23726,0.4456 0.90856,0.54397 0.0926,0.0115 0.19096,0.0115 0.59027,0 1.03008,-0.48611 l 0,0.37617 0.28357,0 0,-3.33911 -0.28357,0 z"
       style="font-style:normal;font-variant:normal;font-weight:normal;font-stretch:normal;font-size:medium;line-height:125%;font-family:Aaargh;-inkscape-font-specification:Aaargh;letter-spacing:0px;word-spacing:0px;fill:#7ca0b1;fill-opacity:1;stroke:none;stroke-width:1px;stroke-linecap:butt;stroke-linejoin:miter;stroke-opacity:1"
       id="path5483" />
    <path
       d="m 540.35452,939.89931 q -0.20833,0.18516 -0.3588,0.43981 l 0,-0.74075 -0.28935,0 0,3.34489 0.28935,0 0,-1.57408 q 0,-0.0521 0.0347,-0.26042 0.10415,-0.64234 0.4861,-0.978 0.19096,-0.16202 0.42245,-0.24303 l 0,-0.29514 q -0.33566,0.0925 -0.58449,0.30672 z"
       style="font-style:normal;font-variant:normal;font-weight:normal;font-stretch:normal;font-size:medium;line-height:125%;font-family:Aaargh;-inkscape-font-specification:Aaargh;letter-spacing:0px;word-spacing:0px;fill:#7ca0b1;fill-opacity:1;stroke:none;stroke-width:1px;stroke-linecap:butt;stroke-linejoin:miter;stroke-opacity:1"
       id="path5485" />
    <path
       d="m 544.45016,942.95484 0.28934,0 0,-5.32984 -0.28934,0 0,5.32984 z"
       style="font-style:normal;font-variant:normal;font-weight:normal;font-stretch:normal;font-size:medium;line-height:125%;font-family:Aaargh;-inkscape-font-specification:Aaargh;letter-spacing:0px;word-spacing:0px;fill:#7ca0b1;fill-opacity:1;stroke:none;stroke-width:1px;stroke-linecap:butt;stroke-linejoin:miter;stroke-opacity:1"
       id="path5487" />
    <path
       d="m 547.19761,939.52893 q -0.60763,0 -1.07638,0.51504 -0.46295,0.51503 -0.46295,1.23263 0,0.81018 0.42246,1.27892 0.42245,0.46875 1.11687,0.46875 0.72337,0 1.12847,-0.46296 0.41087,-0.46295 0.41087,-1.28471 0,-0.7176 -0.46295,-1.23263 -0.46297,-0.51504 -1.07639,-0.51504 z m 0.006,3.20598 q -0.56133,0 -0.90276,-0.38774 -0.34143,-0.39351 -0.34143,-1.07057 0,-0.59609 0.37615,-1.02432 0.37616,-0.43402 0.86804,-0.43402 0.4919,0 0.86806,0.43402 0.37615,0.42823 0.37615,1.02432 0,0.66548 -0.34721,1.06478 -0.34722,0.39353 -0.897,0.39353 z"
       style="font-style:normal;font-variant:normal;font-weight:normal;font-stretch:normal;font-size:medium;line-height:125%;font-family:Aaargh;-inkscape-font-specification:Aaargh;letter-spacing:0px;word-spacing:0px;fill:#7ca0b1;fill-opacity:1;stroke:none;stroke-width:1px;stroke-linecap:butt;stroke-linejoin:miter;stroke-opacity:1"
       id="path5489" />
    <path
       d="m 551.0975,939.52893 q -0.65971,-0.0463 -1.13425,0.37038 -0.50925,0.43981 -0.62499,1.16315 -0.0232,0.17364 -0.0232,0.34144 0,0.65395 0.36458,1.13427 0.39931,0.52082 1.03008,0.52082 0.51504,0 0.92014,-0.35302 0.19676,-0.17358 0.31828,-0.34723 l 0,0.20257 0,0 0,0 0,0.42245 q 0,0.11573 0,0.18517 -0.0174,0.80439 -0.42245,1.15741 -0.35879,0.31251 -0.87962,0.31251 -0.28357,0 -0.71758,-0.0695 l -0.0521,0.28357 q 0.43403,0.0694 0.71759,0.0694 0.1794,0 0.32986,-0.0174 0.47453,-0.0694 0.74652,-0.31252 0.55555,-0.48609 0.56712,-1.41201 0.006,-0.41087 0,-0.89697 l 0,-2.67937 q -0.67708,-0.0694 -1.14003,-0.0752 z m 0.85068,1.82867 q -0.006,0.67711 -0.46295,1.08215 -0.37615,0.32987 -0.79861,0.32987 -0.5382,0 -0.88541,-0.59604 -0.18518,-0.31829 -0.18518,-0.7581 0,-0.35302 0.12732,-0.70025 0.13889,-0.37033 0.38194,-0.58447 0.40509,-0.35301 0.90855,-0.32407 0.16204,0 0.91434,0.0521 0.0116,0.16203 0,1.4988 z"
       style="font-style:normal;font-variant:normal;font-weight:normal;font-stretch:normal;font-size:medium;line-height:125%;font-family:Aaargh;-inkscape-font-specification:Aaargh;letter-spacing:0px;word-spacing:0px;fill:#7ca0b1;fill-opacity:1;stroke:none;stroke-width:1px;stroke-linecap:butt;stroke-linejoin:miter;stroke-opacity:1"
       id="path5491" />
    <path
       d="m 556.66069,942.63654 q -0.16204,-0.14466 -0.20256,-0.52661 -0.0116,-0.10999 -0.0174,-0.78125 -0.0116,-0.7234 0,-1.44095 l 0.74653,0 0,-0.28936 -0.74653,0 0,-0.56132 -0.28935,0 0,0.56132 -0.4861,0 0,0.28936 0.4861,0 q -0.0116,0.72913 0,1.45831 0.0116,0.74074 0.029,0.90276 0.0521,0.40509 0.26041,0.58448 0.12733,0.10998 0.39931,0.13891 0.0984,0.0115 0.43981,0.0115 l 0,-0.24886 q -0.48611,0.0115 -0.6192,-0.0984 z"
       style="font-style:normal;font-variant:normal;font-weight:normal;font-stretch:normal;font-size:medium;line-height:125%;font-family:Aaargh;-inkscape-font-specification:Aaargh;letter-spacing:0px;word-spacing:0px;fill:#7ca0b1;fill-opacity:1;stroke:none;stroke-width:1px;stroke-linecap:butt;stroke-linejoin:miter;stroke-opacity:1"
       id="path5493" />
    <path
       d="m 559.2576,939.52893 q -0.60764,0 -1.07639,0.51504 -0.46296,0.51503 -0.46296,1.23263 0,0.81018 0.42245,1.27892 0.42245,0.46875 1.1169,0.46875 0.72335,0 1.12846,-0.46296 0.41087,-0.46295 0.41087,-1.28471 0,-0.7176 -0.46296,-1.23263 -0.46296,-0.51504 -1.07637,-0.51504 z m 0.006,3.20598 q -0.56134,0 -0.90277,-0.38774 -0.34144,-0.39351 -0.34144,-1.07057 0,-0.59609 0.37616,-1.02432 0.37616,-0.43402 0.86805,-0.43402 0.49189,0 0.86805,0.43402 0.37615,0.42823 0.37615,1.02432 0,0.66548 -0.34721,1.06478 -0.34722,0.39353 -0.89699,0.39353 z"
       style="font-style:normal;font-variant:normal;font-weight:normal;font-stretch:normal;font-size:medium;line-height:125%;font-family:Aaargh;-inkscape-font-specification:Aaargh;letter-spacing:0px;word-spacing:0px;fill:#7ca0b1;fill-opacity:1;stroke:none;stroke-width:1px;stroke-linecap:butt;stroke-linejoin:miter;stroke-opacity:1"
       id="path5495" />
    <path
       d="m 563.79984,939.60416 0,2.40735 q -0.0926,0.25465 -0.28936,0.42824 -0.37036,0.32408 -0.76389,0.32408 -0.59605,0 -0.81016,-0.45716 -0.15627,-0.33565 -0.16784,-0.88541 l 0,-1.8171 -0.30091,0 0,1.81132 q 0,0.69445 0.20254,1.08218 0.23727,0.4456 0.90856,0.54397 0.0926,0.0115 0.19097,0.0115 0.59028,0 1.03009,-0.48611 l 0,0.37617 0.28354,0 0,-3.33911 -0.28354,0 z"
       style="font-style:normal;font-variant:normal;font-weight:normal;font-stretch:normal;font-size:medium;line-height:125%;font-family:Aaargh;-inkscape-font-specification:Aaargh;letter-spacing:0px;word-spacing:0px;fill:#7ca0b1;fill-opacity:1;stroke:none;stroke-width:1px;stroke-linecap:butt;stroke-linejoin:miter;stroke-opacity:1"
       id="path5497" />
    <path
       d="m 567.58669,942.5671 q -0.37616,0.10415 -0.48033,0.12729 -0.28355,0.0752 -0.63656,0.0578 -0.49768,0 -0.86805,-0.32408 -0.32986,-0.28932 -0.43981,-0.9722 -0.0174,-0.0868 -0.0174,-0.15624 -0.006,-0.13887 0,-0.19098 0.0406,-0.6597 0.3993,-0.99536 0.30671,-0.28936 0.92592,-0.28936 0.30092,0 0.87962,0.0579 l 0,-0.28936 q -0.5324,-0.0463 -0.81596,-0.0463 -0.77547,0 -1.15161,0.32987 -0.50347,0.43981 -0.53241,1.19787 0,0.0229 -0.006,0.0868 0,0.0462 0,0.12731 0,0.0348 0.006,0.12151 0.0811,0.80439 0.59606,1.24999 0.42246,0.37615 1.08796,0.37038 0.14467,-0.006 0.3067,-0.023 0.37617,-0.0463 0.75231,-0.15627 0,0.0175 -0.006,-0.0694 0,-0.0868 0,-0.21409 z"
       style="font-style:normal;font-variant:normal;font-weight:normal;font-stretch:normal;font-size:medium;line-height:125%;font-family:Aaargh;-inkscape-font-specification:Aaargh;letter-spacing:0px;word-spacing:0px;fill:#7ca0b1;fill-opacity:1;stroke:none;stroke-width:1px;stroke-linecap:butt;stroke-linejoin:miter;stroke-opacity:1"
       id="path5499" />
    <path
       d="m 571.02922,940.13076 q -0.16205,-0.28936 -0.38194,-0.42245 -0.21413,-0.13887 -0.59607,-0.19673 -0.10416,-0.0175 -0.20254,-0.0175 -0.36458,0 -0.70602,0.19676 -0.31249,0.1852 -0.5324,0.50345 l 0,-2.5752 -0.28934,0 0,5.32983 0.28934,0 0,-1.83451 q 0,-0.59604 0.46297,-0.99534 0.37616,-0.32987 0.79281,-0.32987 0.0694,0 0.13311,0.006 0.3125,0.0521 0.46874,0.16207 0.16204,0.10414 0.30092,0.33565 0.17361,0.28932 0.17361,0.84486 l 0,0 0,1.80557 0.30092,0 0,-1.80557 0,0 q -0.006,-0.6597 -0.21411,-1.00693 z"
       style="font-style:normal;font-variant:normal;font-weight:normal;font-stretch:normal;font-size:medium;line-height:125%;font-family:Aaargh;-inkscape-font-specification:Aaargh;letter-spacing:0px;word-spacing:0px;fill:#7ca0b1;fill-opacity:1;stroke:none;stroke-width:1px;stroke-linecap:butt;stroke-linejoin:miter;stroke-opacity:1"
       id="path5501" />
    <path
       d="m 575.51358,942.63654 q -0.16202,-0.14466 -0.20254,-0.52661 -0.0116,-0.10999 -0.0174,-0.78125 -0.0116,-0.7234 0,-1.44095 l 0.74652,0 0,-0.28936 -0.74652,0 0,-0.56132 -0.28935,0 0,0.56132 -0.48611,0 0,0.28936 0.48611,0 q -0.0116,0.72913 0,1.45831 0.0116,0.74074 0.029,0.90276 0.0521,0.40509 0.26042,0.58448 0.12731,0.10998 0.39929,0.13891 0.0984,0.0115 0.43981,0.0115 l 0,-0.24886 q -0.4861,0.0115 -0.6192,-0.0984 z"
       style="font-style:normal;font-variant:normal;font-weight:normal;font-stretch:normal;font-size:medium;line-height:125%;font-family:Aaargh;-inkscape-font-specification:Aaargh;letter-spacing:0px;word-spacing:0px;fill:#7ca0b1;fill-opacity:1;stroke:none;stroke-width:1px;stroke-linecap:butt;stroke-linejoin:miter;stroke-opacity:1"
       id="path5503" />
    <path
       d="m 579.55144,940.13076 q -0.16202,-0.28936 -0.38193,-0.42245 -0.21412,-0.13887 -0.59606,-0.19673 -0.10417,-0.0175 -0.20255,-0.0175 -0.36458,0 -0.706,0.19676 -0.31251,0.1852 -0.53242,0.50345 l 0,-2.5752 -0.28934,0 0,5.32983 0.28934,0 0,-1.83451 q 0,-0.59604 0.46297,-0.99534 0.37616,-0.32987 0.79281,-0.32987 0.0694,0 0.13311,0.006 0.31249,0.0521 0.46874,0.16207 0.16204,0.10414 0.30092,0.33565 0.17362,0.28932 0.17362,0.84486 l 0,0 0,1.80557 0.30091,0 0,-1.80557 0,0 q -0.006,-0.6597 -0.21412,-1.00693 z"
       style="font-style:normal;font-variant:normal;font-weight:normal;font-stretch:normal;font-size:medium;line-height:125%;font-family:Aaargh;-inkscape-font-specification:Aaargh;letter-spacing:0px;word-spacing:0px;fill:#7ca0b1;fill-opacity:1;stroke:none;stroke-width:1px;stroke-linecap:butt;stroke-linejoin:miter;stroke-opacity:1"
       id="path5505" />
    <path
       d="m 583.26153,941.27081 q 0.0232,-0.60766 -0.27777,-1.08797 -0.33564,-0.5324 -0.90278,-0.62498 -0.10416,-0.0174 -0.20254,-0.0174 -0.51504,0 -0.92012,0.3588 -0.53821,0.46874 -0.59606,1.1863 -0.006,0.0349 -0.006,0.0752 0,0.0521 0,0.12731 l 0,0.12152 q 0.0984,0.81596 0.59028,1.24998 0.42823,0.37617 1.09374,0.37038 0.14467,-0.006 0.30092,-0.023 0.38193,-0.0463 0.75231,-0.15627 0,0.0174 0,-0.0694 0,-0.0868 0,-0.21411 -0.37616,0.10416 -0.48033,0.1273 -0.28356,0.0752 -0.63656,0.0578 -0.49768,0 -0.86806,-0.32409 -0.32985,-0.28932 -0.43981,-0.9722 -0.0174,-0.0868 -0.0174,-0.15623 l 0,-0.029 2.60994,0 z m -2.15276,-1.11111 q 0.37037,-0.32408 0.78703,-0.32408 0.53819,0 0.87962,0.5903 0.14468,0.23723 0.1794,0.55553 l -2.29165,0 q 0.0752,-0.49767 0.4456,-0.82175 z"
       style="font-style:normal;font-variant:normal;font-weight:normal;font-stretch:normal;font-size:medium;line-height:125%;font-family:Aaargh;-inkscape-font-specification:Aaargh;letter-spacing:0px;word-spacing:0px;fill:#7ca0b1;fill-opacity:1;stroke:none;stroke-width:1px;stroke-linecap:butt;stroke-linejoin:miter;stroke-opacity:1"
       id="path5507" />
    <path
       d="m 589.23134,942.5671 q -0.37615,0.10415 -0.48033,0.12729 -0.28355,0.0752 -0.63656,0.0578 -0.49768,0 -0.86805,-0.32408 -0.32986,-0.28932 -0.4398,-0.9722 -0.0174,-0.0868 -0.0174,-0.15624 -0.006,-0.13887 0,-0.19098 0.0405,-0.6597 0.3993,-0.99536 0.30672,-0.28936 0.92591,-0.28936 0.30092,0 0.87963,0.0579 l 0,-0.28936 q -0.53241,-0.0463 -0.81596,-0.0463 -0.77546,0 -1.15161,0.32987 -0.50348,0.43981 -0.53241,1.19787 0,0.0229 -0.006,0.0868 0,0.0462 0,0.12731 0,0.0348 0.006,0.12151 0.0811,0.80439 0.59607,1.24999 0.42245,0.37615 1.08795,0.37038 0.14467,-0.006 0.30671,-0.023 0.37615,-0.0463 0.75231,-0.15627 0,0.0175 -0.006,-0.0694 0,-0.0868 0,-0.21409 z"
       style="font-style:normal;font-variant:normal;font-weight:normal;font-stretch:normal;font-size:medium;line-height:125%;font-family:Aaargh;-inkscape-font-specification:Aaargh;letter-spacing:0px;word-spacing:0px;fill:#7ca0b1;fill-opacity:1;stroke:none;stroke-width:1px;stroke-linecap:butt;stroke-linejoin:miter;stroke-opacity:1"
       id="path5509" />
    <path
       d="m 589.98871,942.95484 0.28936,0 0,-5.32984 -0.28936,0 0,5.32984 z"
       style="font-style:normal;font-variant:normal;font-weight:normal;font-stretch:normal;font-size:medium;line-height:125%;font-family:Aaargh;-inkscape-font-specification:Aaargh;letter-spacing:0px;word-spacing:0px;fill:#7ca0b1;fill-opacity:1;stroke:none;stroke-width:1px;stroke-linecap:butt;stroke-linejoin:miter;stroke-opacity:1"
       id="path5511" />
    <path
       d="m 592.73617,939.52893 q -0.60763,0 -1.07638,0.51504 -0.46295,0.51503 -0.46295,1.23263 0,0.81018 0.42244,1.27892 0.42245,0.46875 1.11689,0.46875 0.72338,0 1.12847,-0.46296 0.41087,-0.46295 0.41087,-1.28471 0,-0.7176 -0.46297,-1.23263 -0.46294,-0.51504 -1.07637,-0.51504 z m 0.006,3.20598 q -0.56134,0 -0.90277,-0.38774 -0.34143,-0.39351 -0.34143,-1.07057 0,-0.59609 0.37616,-1.02432 0.37616,-0.43402 0.86804,-0.43402 0.4919,0 0.86804,0.43402 0.37617,0.42823 0.37617,1.02432 0,0.66548 -0.34723,1.06478 -0.34722,0.39353 -0.89698,0.39353 z"
       style="font-style:normal;font-variant:normal;font-weight:normal;font-stretch:normal;font-size:medium;line-height:125%;font-family:Aaargh;-inkscape-font-specification:Aaargh;letter-spacing:0px;word-spacing:0px;fill:#7ca0b1;fill-opacity:1;stroke:none;stroke-width:1px;stroke-linecap:butt;stroke-linejoin:miter;stroke-opacity:1"
       id="path5513" />
    <path
       d="m 597.27841,939.60416 0,2.40735 q -0.0926,0.25465 -0.28934,0.42824 -0.37037,0.32408 -0.76388,0.32408 -0.59607,0 -0.81019,-0.45716 -0.15624,-0.33565 -0.16782,-0.88541 l 0,-1.8171 -0.30092,0 0,1.81132 q 0,0.69445 0.20255,1.08218 0.23726,0.4456 0.90855,0.54397 0.0926,0.0115 0.19097,0.0115 0.59027,0 1.03008,-0.48611 l 0,0.37617 0.28356,0 0,-3.33911 -0.28356,0 z"
       style="font-style:normal;font-variant:normal;font-weight:normal;font-stretch:normal;font-size:medium;line-height:125%;font-family:Aaargh;-inkscape-font-specification:Aaargh;letter-spacing:0px;word-spacing:0px;fill:#7ca0b1;fill-opacity:1;stroke:none;stroke-width:1px;stroke-linecap:butt;stroke-linejoin:miter;stroke-opacity:1"
       id="path5515" />
    <path
       d="m 600.93217,937.64814 0,1.95023 q -0.55556,-0.0521 -0.85069,-0.0521 -0.70601,0 -1.12846,0.37037 -0.50347,0.43981 -0.61921,1.15737 -0.029,0.17364 -0.029,0.34144 0,0.64816 0.36458,1.12847 0.3993,0.52083 1.0243,0.52083 0.51504,0 0.92013,-0.35302 0.19675,-0.17359 0.31828,-0.34723 l 0,0.20257 0,0 0,0 0,0.37616 0.28357,0 0,-5.29512 -0.28357,0 z m 0,3.72104 q -0.006,0.6771 -0.46296,1.07636 -0.37616,0.32408 -0.79282,0.32408 -0.53819,0 -0.87962,-0.58446 -0.19097,-0.3183 -0.19097,-0.75811 0,-0.35302 0.12732,-0.69442 0.13888,-0.37615 0.38194,-0.58451 0.40508,-0.35879 0.90276,-0.32407 0.16204,0 0.91435,0.0579 0.0116,0.15624 0,1.48724 z"
       style="font-style:normal;font-variant:normal;font-weight:normal;font-stretch:normal;font-size:medium;line-height:125%;font-family:Aaargh;-inkscape-font-specification:Aaargh;letter-spacing:0px;word-spacing:0px;fill:#7ca0b1;fill-opacity:1;stroke:none;stroke-width:1px;stroke-linecap:butt;stroke-linejoin:miter;stroke-opacity:1"
       id="path5517" />
  </g>
</svg>
