<?xml version="1.0" encoding="UTF-8" standalone="no"?>
<!-- Created with Inkscape (http://www.inkscape.org/) -->

<svg
   xmlns:dc="http://purl.org/dc/elements/1.1/"
   xmlns:cc="http://creativecommons.org/ns#"
   xmlns:rdf="http://www.w3.org/1999/02/22-rdf-syntax-ns#"
   xmlns:svg="http://www.w3.org/2000/svg"
   xmlns="http://www.w3.org/2000/svg"
   xmlns:sodipodi="http://sodipodi.sourceforge.net/DTD/sodipodi-0.dtd"
   xmlns:inkscape="http://www.inkscape.org/namespaces/inkscape"
   width="150"
   height="50"
   id="svg5633"
   version="1.1"
   inkscape:version="0.48+devel r13495"
   viewBox="0 0 150 50.000001"
   sodipodi:docname="logo-only-light.svg">
  <defs
     id="defs5635" />
  <sodipodi:namedview
     id="base"
     pagecolor="#ffffff"
     bordercolor="#666666"
     borderopacity="1.0"
     inkscape:pageopacity="0.0"
     inkscape:pageshadow="2"
     inkscape:zoom="1.979899"
     inkscape:cx="5.895144"
     inkscape:cy="18.574792"
     inkscape:document-units="px"
     inkscape:current-layer="layer1"
     showgrid="false"
     fit-margin-top="0"
     fit-margin-left="0"
     fit-margin-right="0"
     fit-margin-bottom="0"
     inkscape:window-width="1366"
     inkscape:window-height="723"
     inkscape:window-x="0"
     inkscape:window-y="21"
     inkscape:window-maximized="1" />
  <metadata
     id="metadata5638">
    <rdf:RDF>
      <cc:Work
         rdf:about="">
        <dc:format>image/svg+xml</dc:format>
        <dc:type
           rdf:resource="http://purl.org/dc/dcmitype/StillImage" />
        <dc:title></dc:title>
      </cc:Work>
    </rdf:RDF>
  </metadata>
  <g
     inkscape:label="Calque 1"
     inkscape:groupmode="layer"
     id="layer1"
     transform="translate(-499.0243,-894.9571)">
    <path
       style="opacity:1;fill:#e5eff4;fill-opacity:1;stroke:none;stroke-width:2;stroke-linecap:butt;stroke-linejoin:bevel;stroke-miterlimit:4;stroke-dasharray:none;stroke-dashoffset:0;stroke-opacity:1"
       d="m 534.49819,906.73753 -1.02015,-1.58718 -1.94958,-1.67252 -2.14902,-1.63455 -0.007,-1.23246 c -0.004,-0.67784 0.0358,-1.23175 0.088,-1.23091 0.0521,8.5e-4 1.22879,0.61233 2.61477,1.35885 l 2.51995,1.35733 2.06158,3.02384 c 1.13387,1.66309 2.07543,3.43735 2.05751,3.45526 -0.0179,0.0179 -0.47322,-0.16741 -0.80287,-0.23771 -0.55929,-0.1193 -1.07461,-0.23852 -2.27111,0.0572 -0.21398,0.0529 -0.42574,-0.23838 -1.14218,-1.65713 z"
       id="path5456"
       inkscape:connector-curvature="0"
       sodipodi:nodetypes="scccccscssccs" />
    <path
       id="path5458"
       d="m 529.41475,899.42507 -1.14179,0.95648 c -0.77398,0.64872 -1.18572,1.07787 -1.27642,1.33126 -0.0737,0.20564 -0.38409,1.10508 -0.69055,1.99855 -0.30648,0.89347 -0.60814,1.68577 -0.6698,1.76006 -0.0617,0.0743 -0.56291,0.19934 -1.11437,0.27838 l -1.003,0.14378 -0.49114,0.68556 c -0.27008,0.37692 -0.52361,0.73811 -0.56424,0.80273 -0.0407,0.0647 -3e-5,0.57371 0.0906,1.13184 l 0.16454,1.01547 -0.4072,0.35484 c -0.22392,0.19555 0.11464,0.68884 -0.33156,1.02961 l -0.81189,0.6191 -1.52156,0.23932 c -1.07592,0.16934 -1.56315,0.2944 -1.66199,0.42629 -0.077,0.10267 -0.78697,1.35721 -1.57724,2.78803 -1.36987,2.4802 -1.54118,2.732 -3.67468,5.40315 l -2.23788,2.80211 -0.32492,1.75427 -0.32575,1.7534 -0.80774,1.25148 c -0.44955,0.6848 -0.86445,1.3399 -0.93321,1.44844 -0.0686,0.10853 -0.21415,0.19694 -0.32326,0.19694 -0.44964,0 -0.12516,0.19819 1.1526,0.70221 l 1.35037,0.53184 1.68694,-0.79278 1.68692,-0.79363 0.69306,0.39972 c 7.16537,-12.14818 16.50548,-14.14887 23.90285,-13.14061 l -0.80856,-0.78277 0.0449,-3.36638 0.0449,-3.36556 -1.07116,-0.48278 -1.07115,-0.48283 -0.96479,-1.59305 -0.96396,-1.59382 -1.96781,-1.51908 -1.96698,-1.51907 -0.0565,-1.18666 -0.0566,-1.18584 z"
       style="opacity:1;fill:#c5dbe5;fill-opacity:1;stroke:none;stroke-width:2;stroke-linecap:butt;stroke-linejoin:bevel;stroke-miterlimit:4;stroke-dasharray:none;stroke-dashoffset:0;stroke-opacity:1"
       inkscape:connector-curvature="0" />
    <path
       id="path5460"
       d="m 536.15498,907.90958 c -0.38765,0.007 -0.66454,0.0644 -0.66231,0.16866 8.5e-4,0.0428 0.44121,0.28034 0.97892,0.52771 l 0.97808,0.44956 -0.0574,3.79019 -0.054,3.54421 c 5.24676,0.52121 9.62473,2.63108 11.76611,3.94643 l -0.0307,-1.3853 -1.91046,-1.49825 -1.91047,-1.4983 -1.03126,0.18945 c -0.56723,0.10459 -1.03614,0.18092 -1.04126,0.16952 -0.005,-0.0115 -0.45289,-1.20336 -0.99553,-2.6492 l -0.98639,-2.62929 -1.38278,-1.39192 -1.38278,-1.39194 -0.9515,-0.20857 c -0.44008,-0.0964 -0.93862,-0.1399 -1.32627,-0.13296 z"
       style="opacity:1;fill:#d2e4ec;fill-opacity:1;stroke:none;stroke-width:2;stroke-linecap:butt;stroke-linejoin:bevel;stroke-miterlimit:4;stroke-dasharray:none;stroke-dashoffset:0;stroke-opacity:1"
       inkscape:connector-curvature="0" />
    <path
       id="path5462"
       d="m 514.34125,928.92056 c -0.0312,-0.0127 -0.74635,0.3035 -1.58887,0.70301 -0.84251,0.39951 -1.56624,0.72633 -1.60881,0.72633 -0.0426,0 -0.852,-0.30783 -1.79912,-0.68394 -0.9471,-0.37609 -1.7725,-0.68378 -1.83401,-0.68392 -0.0615,-1.2e-4 -0.41506,0.0771 -0.7853,0.17121 l -0.67309,0.17117 -1.28473,1.81574 -1.28556,1.81655 -1.47835,0.84763 c -0.81291,0.46636 -1.50435,0.87707 -1.53652,0.91243 -0.0322,0.0353 -0.007,0.0462 0.0556,0.0242 0.21572,-0.0758 8.77548,-2.36481 9.13933,-2.44395 0.34292,-0.0746 0.50716,-0.0382 2.91764,0.65565 0.67346,-1.3852 1.37042,-2.66991 2.08996,-3.8492 -0.10495,-0.0583 -0.31528,-0.17742 -0.32825,-0.18282 z"
       style="opacity:1;fill:#abc2cd;fill-opacity:1;stroke:none;stroke-width:0.35714287;stroke-linecap:butt;stroke-linejoin:bevel;stroke-miterlimit:4;stroke-dasharray:none;stroke-dashoffset:0;stroke-opacity:1"
       inkscape:connector-curvature="0" />
    <path
       inkscape:connector-curvature="0"
       id="path5520"
       style="font-style:normal;font-variant:normal;font-weight:normal;font-stretch:normal;font-size:medium;line-height:125%;font-family:Aaargh;-inkscape-font-specification:Aaargh;letter-spacing:0px;word-spacing:0px;fill:#292929;fill-opacity:1;stroke:none;stroke-width:1px;stroke-linecap:butt;stroke-linejoin:miter;stroke-opacity:1"
       d="m 535.95102,930.14703 q 0.12823,-3.36573 -1.53863,-6.02629 -1.85918,-2.94907 -5.00056,-3.46194 -0.57697,-0.0962 -1.12191,-0.0962 -2.85288,0 -5.0967,1.98736 -2.9811,2.59646 -3.30165,6.57125 -0.0321,0.19235 -0.0321,0.41671 0,0.28851 0,0.70522 l 0,0.67314 q 0.54493,4.51973 3.26958,6.92386 2.37206,2.08354 6.05836,2.0515 0.80137,-0.032 1.66686,-0.12823 2.1156,-0.25644 4.16711,-0.86546 0,0.0962 0,-0.38467 0,-0.48083 0,-1.18604 -2.08355,0.57697 -2.66055,0.70521 -1.57068,0.41672 -3.52602,0.32056 -2.75672,0 -4.80822,-1.79507 -1.82712,-1.60276 -2.43616,-5.38519 -0.0962,-0.48083 -0.0962,-0.8655 l 0,-0.16027 14.45671,0 z m -11.92439,-6.15453 q 2.05151,-1.79507 4.35947,-1.79507 2.98109,0 4.87233,3.26957 0.80136,1.3143 0.99368,3.07727 l -12.69369,0 q 0.4167,-2.75671 2.46821,-4.55177 z" />
    <path
       inkscape:connector-curvature="0"
       id="path5522"
       style="font-style:normal;font-variant:normal;font-weight:normal;font-stretch:normal;font-size:medium;line-height:125%;font-family:Aaargh;-inkscape-font-specification:Aaargh;letter-spacing:0px;word-spacing:0px;fill:#292929;fill-opacity:1;stroke:none;stroke-width:1px;stroke-linecap:butt;stroke-linejoin:miter;stroke-opacity:1"
       d="m 545.14423,939.41086 1.66685,0 6.50711,-18.49563 -1.6989,0 -5.64164,16.0915 -5.83396,-16.0915 -1.69891,0 6.69945,18.49563 z" />
    <path
       inkscape:connector-curvature="0"
       id="path5524"
       style="font-style:normal;font-variant:normal;font-weight:normal;font-stretch:normal;font-size:medium;line-height:125%;font-family:Aaargh;-inkscape-font-specification:Aaargh;letter-spacing:0px;word-spacing:0px;fill:#292929;fill-opacity:1;stroke:none;stroke-width:1px;stroke-linecap:butt;stroke-linejoin:miter;stroke-opacity:1"
       d="m 571.57441,930.14703 q 0.12821,-3.36573 -1.53864,-6.02629 -1.85918,-2.94907 -5.00054,-3.46194 -0.57699,-0.0962 -1.12192,-0.0962 -2.85288,0 -5.09671,1.98736 -2.98109,2.59646 -3.30165,6.57125 -0.0321,0.19235 -0.0321,0.41671 0,0.28851 0,0.70522 l 0,0.67314 q 0.54492,4.51973 3.26959,6.92386 2.37205,2.08354 6.05835,2.0515 0.80137,-0.032 1.66685,-0.12823 2.11563,-0.25644 4.16713,-0.86546 0,0.0962 0,-0.38467 0,-0.48083 0,-1.18604 -2.08357,0.57697 -2.66056,0.70521 -1.57069,0.41672 -3.52602,0.32056 -2.75671,0 -4.80822,-1.79507 -1.82713,-1.60276 -2.43616,-5.38519 -0.0962,-0.48083 -0.0962,-0.8655 l 0,-0.16027 14.45671,0 z m -11.92439,-6.15453 q 2.05151,-1.79507 4.35946,-1.79507 2.98109,0 4.87232,3.26957 0.80137,1.3143 0.9937,3.07727 l -12.69369,0 q 0.41671,-2.75671 2.46821,-4.55177 z" />
    <path
       inkscape:connector-curvature="0"
       id="path5526"
       style="font-style:normal;font-variant:normal;font-weight:normal;font-stretch:normal;font-size:medium;line-height:125%;font-family:Aaargh;-inkscape-font-specification:Aaargh;letter-spacing:0px;word-spacing:0px;fill:#292929;fill-opacity:1;stroke:none;stroke-width:1px;stroke-linecap:butt;stroke-linejoin:miter;stroke-opacity:1"
       d="m 579.38926,922.55002 q -1.15398,1.02577 -1.98739,2.43616 l 0,-4.10299 -1.60275,0 0,18.52767 1.60275,0 0,-8.71889 q 0,-0.28851 0.19233,-1.44248 0.57698,-3.55809 2.69259,-5.41726 1.05781,-0.89754 2.34,-1.34629 l 0,-1.63479 q -1.85918,0.51286 -3.23753,1.69887 z" />
    <path
       inkscape:connector-curvature="0"
       id="path5528"
       style="font-style:normal;font-variant:normal;font-weight:normal;font-stretch:normal;font-size:medium;line-height:125%;font-family:Aaargh;-inkscape-font-specification:Aaargh;letter-spacing:0px;word-spacing:0px;fill:#292929;fill-opacity:1;stroke:none;stroke-width:1px;stroke-linecap:butt;stroke-linejoin:miter;stroke-opacity:1"
       d="m 601.98589,923.83223 q -0.9296,-1.57068 -2.11563,-2.30794 -1.18602,-0.76933 -3.33369,-1.12192 -0.54493,-0.064 -1.12193,-0.064 -2.01944,0 -3.84656,1.0578 -1.79508,1.0578 -2.9811,2.78879 l 0,-3.30166 -1.60273,0 0,18.52767 1.60273,0 0,-10.12933 q 0,-3.26957 2.53233,-5.51343 2.08356,-1.8271 4.42356,-1.8271 0.3526,0 0.7052,0.0642 1.73096,0.28847 2.62849,0.86545 0.89754,0.57698 1.6348,1.89126 0.96165,1.60271 0.96165,4.64794 l 0,0 0,10.00108 1.66684,0 0,-10.00108 q 0,-3.59013 -1.15396,-5.57755 z" />
    <path
       inkscape:connector-curvature="0"
       id="path5530"
       style="font-style:normal;font-variant:normal;font-weight:normal;font-stretch:normal;font-size:medium;line-height:125%;font-family:Aaargh;-inkscape-font-specification:Aaargh;letter-spacing:0px;word-spacing:0px;fill:#292929;fill-opacity:1;stroke:none;stroke-width:1px;stroke-linecap:butt;stroke-linejoin:miter;stroke-opacity:1"
       d="m 622.91215,930.14703 q 0.12822,-3.36573 -1.53863,-6.02629 -1.85918,-2.94907 -5.00054,-3.46194 -0.577,-0.0962 -1.12192,-0.0962 -2.85287,0 -5.09672,1.98736 -2.98109,2.59646 -3.30165,6.57125 -0.0321,0.19235 -0.0321,0.41671 0,0.28851 0,0.70522 l 0,0.67314 q 0.54493,4.51973 3.2696,6.92386 2.37205,2.08354 6.05834,2.0515 0.80137,-0.032 1.66686,-0.12823 2.1156,-0.25644 4.16711,-0.86546 0,0.0962 0,-0.38467 0,-0.48083 0,-1.18604 -2.08356,0.57697 -2.66054,0.70521 -1.57069,0.41672 -3.52603,0.32056 -2.7567,0 -4.80821,-1.79507 -1.82713,-1.60276 -2.43617,-5.38519 -0.0962,-0.48083 -0.0962,-0.8655 l 0,-0.16027 14.4567,0 z m -11.92438,-6.15453 q 2.05151,-1.79507 4.35945,-1.79507 2.98109,0 4.87233,3.26957 0.80137,1.3143 0.9937,3.07727 l -12.6937,0 q 0.41672,-2.75671 2.46822,-4.55177 z" />
    <path
       inkscape:connector-curvature="0"
       id="path5532"
       style="font-style:normal;font-variant:normal;font-weight:normal;font-stretch:normal;font-size:medium;line-height:125%;font-family:Aaargh;-inkscape-font-specification:Aaargh;letter-spacing:0px;word-spacing:0px;fill:#292929;fill-opacity:1;stroke:none;stroke-width:1px;stroke-linecap:butt;stroke-linejoin:miter;stroke-opacity:1"
       d="m 630.53468,928.8969 q -3.17343,-1.92329 -3.17343,-3.52604 0,-0.28848 0.0962,-0.70522 0.51287,-2.56436 3.20548,-2.56436 0.48082,0 1.0578,0.0962 1.18603,0.19232 1.79507,0.51287 0.76932,0.35262 1.76302,1.34632 l 0.16027,-1.5066 q -1.85917,-1.92326 -5.09672,-1.92326 -3.84656,0 -4.55177,3.59013 -0.0962,0.51287 -0.0962,0.96165 0,2.08354 2.14767,3.84656 2.01944,1.34632 4.00685,2.6926 2.14766,1.60275 2.14766,3.26958 0,0.32055 -0.064,0.6411 -0.57698,3.07726 -3.46192,3.07726 -2.53232,0 -4.64793,-1.89122 l -0.064,1.76303 q 1.25013,0.9616 3.26958,1.34627 0.70521,0.16028 1.41041,0.16028 1.95534,0 3.30164,-0.99368 1.47452,-1.02578 1.85917,-2.94904 0.12823,-0.70522 0.12823,-1.2822 0,-1.50659 -1.12191,-2.82083 -1.12192,-1.31423 -4.07096,-3.14135 z" />
    <path
       inkscape:connector-curvature="0"
       id="path5534"
       style="font-style:normal;font-variant:normal;font-weight:normal;font-stretch:normal;font-size:medium;line-height:125%;font-family:Aaargh;-inkscape-font-specification:Aaargh;letter-spacing:0px;word-spacing:0px;fill:#292929;fill-opacity:1;stroke:none;stroke-width:1px;stroke-linecap:butt;stroke-linejoin:miter;stroke-opacity:1"
       d="m 643.72924,937.71196 q -0.89754,-0.80138 -1.12193,-2.917 -0.064,-0.60901 -0.0962,-4.32738 -0.0641,-4.00684 0,-7.98164 l 4.13506,0 0,-1.60275 -4.13506,0 0,-3.10931 -1.60273,0 0,3.10931 -2.69261,0 0,1.60275 2.69261,0 q -0.064,4.03888 0,8.07779 0.064,4.10304 0.16026,5.00057 0.28849,2.24381 1.44247,3.2375 0.70521,0.60906 2.21178,0.76935 0.54493,0.064 2.43616,0.064 l 0,-1.37835 q -2.69261,0.064 -3.42985,-0.54494 z" />
  </g>
</svg>
